# xmcd
#
# Track frame offsets:
#	150
#	21147
#	32187
#	51137
#	68401
#	81993
#	101125
#	117133
#	139572
#	158609
#	174376
#	188436
#	204165
#	215250
#	229281
#
# Disc length: 3327 seconds
#
# Revision: 3
# Processed by: cddbd v1.5.2PL0 Copyright (c) Steve Scherf et al.
# Submitted via: audiograbber 1.83.01
#
DISCID=bb0cfd0f
DTITLE=Isla Grant - Mother
DYEAR=2002
DGENRE=Country
TTITLE0=My Homeland
TTITLE1=Listen To The Children
TTITLE2=Mother
TTITLE3=God Please Forgive Me
TTITLE4=Mother's Chair
TTITLE5=The Old Accordian Man (Dedicated to the memory of Jimmy Shand)
TTITLE6=One More Time
TTITLE7=Sweet Baby Mine
TTITLE8=Cottage In The Country
TTITLE9=Dark, Deep, Rolling Water
TTITLE10=There's Nothing New I'm Missing You
TTITLE11=Life's Storybook Cover
TTITLE12=Till The Day That He Met You
TTITLE13=Leaves In The Wind
TTITLE14=The Ghosts Of Culloden
EXTD=YEAR: 2002
EXTT0=
EXTT1=
EXTT2=
EXTT3=
EXTT4=
EXTT5=
EXTT6=
EXTT7=
EXTT8=
EXTT9=
EXTT10=
EXTT11=
EXTT12=
EXTT13=
EXTT14=
PLAYORDER=
